<svg id="Layer_1" data-name="Layer 1" xmlns="http://www.w3.org/2000/svg" viewBox="0 0 970.21 280.77"><defs><style>.cls-1{fill:#1c2126;}.cls-2{fill:#32393f;}</style></defs><path class="cls-1" d="M397,122.27H382.4v44.28H360.66V48.41h44c27,0,39.65,17.74,39.65,36.93,0,14.39-7.51,28.77-24.78,34.37l29.74,46.84h-25.9ZM382.4,102.6h19.83c14.23,0,19.66-8.47,19.66-17.1,0-9-5.91-16.79-17.27-16.79H382.4Z"/><path class="cls-1" d="M544.19,130.58H478c2.55,11.19,10.71,20,26.54,20a53.54,53.54,0,0,0,28.61-8.95l8.32,14.87c-8.16,6.07-21.91,12-37.73,12-32.62,0-47-22.38-47-45.4,0-25.9,18.07-45.41,45.09-45.41,24.46,0,43,16.15,43,43.65A79.09,79.09,0,0,1,544.19,130.58ZM478,114.75h46.36c-1.76-12.15-10.71-19.66-22.54-19.66C489.68,95.09,480.72,102.76,478,114.75Z"/><path class="cls-1" d="M563.18,166.55V45.05H584v121.5Z"/><path class="cls-1" d="M689.51,79.74v86.81H669.69V155.84a36.78,36.78,0,0,1-28.3,12.79c-25.1,0-43-20.14-43-45.88,0-26.06,18.22-45.09,43-45.09,12.47,0,21.59,5.6,28.3,13.11v-11Zm-19.34,43.33c0-14.39-10.39-26.38-25.58-26.38-15.35,0-25.42,12-25.42,26.38,0,14.55,10.23,26.53,25.42,26.53S670.17,137.62,670.17,123.07Z"/><path class="cls-1" d="M774.37,161.44c-6.72,4.63-16.31,7.19-25.1,7.19-19.67,0-29.74-11.83-29.74-33.89V97.33H705.15V79.74h14.7V49.05h20.63V79.74h29.09V97.33H740.48v36.61c0,10.23,3.67,15.66,12.63,15.66a28.47,28.47,0,0,0,14.71-4.47Z"/><path class="cls-1" d="M779.32,123.07c0-25.1,18.87-45.57,46.37-45.57S872.05,98,872.05,123.07c0,25.26-18.86,45.72-46.36,45.72S779.32,148.33,779.32,123.07Zm71.79,0c0-14.39-11-26.22-25.42-26.22s-25.42,11.83-25.42,26.22c0,14.71,11,26.38,25.42,26.38S851.11,137.78,851.11,123.07Z"/><path class="cls-1" d="M888.36,79.74h20.46V91.89c4.64-8.47,14.55-14.39,27.34-14.39,17.58,0,34.05,11.51,34.05,36.13v52.92H949.27V119.39c0-14.87-7.83-22.86-19-22.86-12.47,0-21.1,9.59-21.1,23.18v46.84H888.36Z"/><path class="cls-2" d="M385.13,227l3.55,3.5a15.65,15.65,0,0,1-11.93,5.28c-8.95,0-15.74-6.87-15.74-16s6.79-16.05,15.74-16.05a15.58,15.58,0,0,1,11.49,4.87l-3.6,3.51a10.65,10.65,0,0,0-7.89-3.42c-6.12,0-10.33,5.1-10.33,11.09s4.21,11.08,10.33,11.08A11,11,0,0,0,385.13,227Z"/><path class="cls-2" d="M425.71,219.77c0,9.18-6.65,16-15.69,16s-15.7-6.87-15.7-16S401,203.72,410,203.72,425.71,210.59,425.71,219.77Zm-5.41,0c0-6-4-11-10.28-11s-10.29,5-10.29,11,4,11,10.29,11S420.3,225.75,420.3,219.77Z"/><path class="cls-2" d="M438.63,204.25l15.51,21.37V204.25h5.32v31h-4.78L439.16,214v21.33h-5.32v-31Z"/><path class="cls-2" d="M474.15,204.25l15.52,21.37V204.25H495v31H490.2L474.69,214v21.33h-5.33v-31Z"/><path class="cls-2" d="M510.21,216.84h12.42v5.06H510.21v8.33H524v5.06H504.89v-31h18.8v5.06H510.21Z"/><path class="cls-2" d="M554.78,227l3.55,3.5a15.65,15.65,0,0,1-11.93,5.28c-9,0-15.74-6.87-15.74-16s6.78-16.05,15.74-16.05a15.54,15.54,0,0,1,11.48,4.87l-3.59,3.51a10.65,10.65,0,0,0-7.89-3.42c-6.12,0-10.33,5.1-10.33,11.09s4.21,11.08,10.33,11.08A11,11,0,0,0,554.78,227Z"/><path class="cls-2" d="M571.64,209.31h-8.56v-5.06h22.44v5.06H577v26h-5.32Z"/><path class="cls-2" d="M593.37,204.25h5.33v31h-5.33Z"/><path class="cls-2" d="M614,204.25l15.51,21.37V204.25h5.32v31H630L614.53,214v21.33h-5.32v-31Z"/><path class="cls-2" d="M665.53,229.35v-6.57h-7v-5h12.28v14.1s-4,3.9-11.48,3.9a15.94,15.94,0,0,1-16.32-16,15.76,15.76,0,0,1,16.1-16.05,15.37,15.37,0,0,1,11.48,4.65l-3.64,3.55a10.25,10.25,0,0,0-7.84-3.24c-6.26,0-10.69,5.1-10.69,11.09a10.94,10.94,0,0,0,10.91,11.08C663.71,230.85,665.53,229.35,665.53,229.35Z"/><path class="cls-2" d="M705.89,222.34c-4.56-1.6-9.71-4.08-9.71-9.84,0-4.39,3.91-8.78,10.16-8.78a13.32,13.32,0,0,1,10.1,4.92l-3.67,3.63s-2.58-3.5-6.43-3.5c-2.66,0-4.75,1.64-4.75,3.73,0,2.7,2.44,3.54,6.7,5.14,4.74,1.77,8.69,3.9,8.69,9.53s-5,8.65-10.82,8.65a13.56,13.56,0,0,1-11.35-6.34l4-3.37s2.66,4.65,7.36,4.65c2.66,0,5.41-1.06,5.41-3.59S709.57,223.63,705.89,222.34Z"/><path class="cls-2" d="M731.66,209.31h-8.55v-5.06h22.43v5.06H737v26h-5.32Z"/><path class="cls-2" d="M760.18,204.25h5.41l12.06,31h-5.36l-2.84-7.36H756.32l-2.83,7.36h-5.37Zm-1.95,18.8h9.31L762.89,211Z"/><path class="cls-2" d="M789.32,204.25l15.52,21.37V204.25h5.32v31h-4.79L789.85,214v21.33h-5.32v-31Z"/><path class="cls-2" d="M845.42,219.77c0,8.95-6.29,15.52-15.34,15.52h-10v-31h10C839.13,204.25,845.42,210.81,845.42,219.77Zm-5.41,0c0-5.68-3.81-10.46-9.84-10.46h-4.79v20.92h4.79C836.2,230.23,840,225.4,840,219.77Z"/><path class="cls-2" d="M861.88,204.25h5.41l12.06,31H874l-2.84-7.36H858l-2.84,7.36h-5.37Zm-2,18.8h9.31L864.59,211Z"/><path class="cls-2" d="M886.23,204.25h10.2c6.16,0,10.29,4,10.29,9.67,0,4.65-2.48,8.2-6.92,9.31l7.76,12.06h-6.21L894,223.58h-2.43v11.71h-5.33Zm15.08,9.67c0-3.06-2.13-4.61-5.54-4.61h-4.21v9.22h4.21C899.18,218.53,901.31,217,901.31,213.92Z"/><path class="cls-2" d="M940.78,219.77c0,8.95-6.3,15.52-15.34,15.52h-10v-31h10C934.48,204.25,940.78,210.81,940.78,219.77Zm-5.41,0c0-5.68-3.81-10.46-9.84-10.46h-4.79v20.92h4.79C931.56,230.23,935.37,225.4,935.37,219.77Z"/><path class="cls-2" d="M958.75,222.34c-4.57-1.6-9.71-4.08-9.71-9.84,0-4.39,3.9-8.78,10.15-8.78a13.35,13.35,0,0,1,10.11,4.92l-3.68,3.63s-2.57-3.5-6.43-3.5c-2.66,0-4.74,1.64-4.74,3.73,0,2.7,2.44,3.54,6.69,5.14,4.75,1.77,8.69,3.9,8.69,9.53s-5,8.65-10.82,8.65a13.56,13.56,0,0,1-11.35-6.34l4-3.37s2.66,4.65,7.36,4.65c2.67,0,5.41-1.06,5.41-3.59S962.43,223.63,958.75,222.34Z"/><path class="cls-1" d="M244.94,130.81a36.49,36.49,0,0,0-7,.7L193.18,59.85a35.82,35.82,0,1,0-62.37-24,36.49,36.49,0,0,0,.7,7L59.85,87.59a35.85,35.85,0,1,0-17,61.66l44.77,71.67a35.85,35.85,0,1,0,61.66,17l71.67-44.77a35.82,35.82,0,1,0,24-62.37ZM166.64,17.92a17.92,17.92,0,1,1-17.91,17.91A17.91,17.91,0,0,1,166.64,17.92ZM122.3,158.47V122.3h36.17v36.17ZM139.38,59a35.9,35.9,0,0,0,19.09,11.66v33.7H70.29c-.17-.62-.36-1.23-.57-1.84ZM17.92,114.13A17.92,17.92,0,1,1,35.83,132,17.91,17.91,0,0,1,17.92,114.13ZM59,141.39A35.94,35.94,0,0,0,70.69,122.3h33.7v88.18c-.62.17-1.23.36-1.84.57Zm55.1,121.46A17.92,17.92,0,1,1,132,244.94,17.91,17.91,0,0,1,114.13,262.85Zm27.26-41.11a35.94,35.94,0,0,0-19.09-11.66v-33.7h88.18c.17.62.36,1.23.57,1.84Zm68.69-63.27h-33.7V70.29c.62-.17,1.23-.36,1.84-.57l43.52,69.66A35.9,35.9,0,0,0,210.08,158.47Zm34.86,26.09a17.92,17.92,0,1,1,17.91-17.92A17.92,17.92,0,0,1,244.94,184.56Z"/></svg>