<svg id="Layer_1" data-name="Layer 1" xmlns="http://www.w3.org/2000/svg" viewBox="0 0 609.55 492.2"><defs><style>.cls-1{fill:#fff;}</style></defs><path class="cls-1" d="M36.29,378.65H21.74v44.29H0V304.79H44c27,0,39.65,17.75,39.65,36.93,0,14.39-7.51,28.78-24.78,34.37l29.74,46.85H62.67ZM21.74,359H41.57c14.23,0,19.66-8.48,19.66-17.11,0-8.95-5.91-16.79-17.27-16.79H21.74Z"/><path class="cls-1" d="M183.53,387H117.35c2.55,11.19,10.71,20,26.54,20a53.55,53.55,0,0,0,28.61-9l8.32,14.87c-8.16,6.08-21.91,12-37.73,12-32.62,0-47-22.38-47-45.4,0-25.9,18.07-45.4,45.09-45.4,24.46,0,43,16.14,43,43.64A78.93,78.93,0,0,1,183.53,387Zm-66.18-15.82h46.36C162,359,153,351.47,141.17,351.47,129,351.47,120.06,359.15,117.35,371.14Z"/><path class="cls-1" d="M202.52,422.94V301.43H223.3V422.94Z"/><path class="cls-1" d="M328.85,336.12v86.82H309V412.22A36.78,36.78,0,0,1,280.73,425c-25.1,0-43-20.14-43-45.88,0-26.06,18.22-45.08,43-45.08,12.47,0,21.59,5.59,28.3,13.11v-11Zm-19.34,43.33c0-14.39-10.39-26.38-25.58-26.38-15.35,0-25.42,12-25.42,26.38,0,14.55,10.23,26.54,25.42,26.54S309.51,394,309.51,379.45Z"/><path class="cls-1" d="M413.71,417.82C407,422.46,397.4,425,388.61,425c-19.67,0-29.74-11.83-29.74-33.89V353.71H344.48V336.12h14.71V305.43h20.63v30.69h29.09v17.59H379.82v36.61c0,10.23,3.67,15.67,12.63,15.67a28.41,28.41,0,0,0,14.7-4.48Z"/><path class="cls-1" d="M418.66,379.45c0-25.1,18.87-45.56,46.37-45.56s46.36,20.46,46.36,45.56c0,25.26-18.86,45.72-46.36,45.72S418.66,404.71,418.66,379.45Zm71.79,0c0-14.39-11-26.22-25.42-26.22s-25.42,11.83-25.42,26.22c0,14.71,11,26.38,25.42,26.38S490.45,394.16,490.45,379.45Z"/><path class="cls-1" d="M527.7,336.12h20.46v12.15c4.64-8.47,14.55-14.38,27.34-14.38,17.58,0,34,11.51,34,36.13v52.92H588.61V375.77c0-14.87-7.83-22.86-19-22.86-12.47,0-21.1,9.59-21.1,23.18v46.85H527.7Z"/><path class="cls-1" d="M24.47,483.42,28,486.93a15.66,15.66,0,0,1-11.93,5.27C7.14,492.2.35,485.33.35,476.15s6.79-16,15.74-16A15.57,15.57,0,0,1,27.58,465l-3.6,3.5a10.67,10.67,0,0,0-7.89-3.41c-6.12,0-10.33,5.1-10.33,11.08S10,487.23,16.09,487.23A11,11,0,0,0,24.47,483.42Z"/><path class="cls-1" d="M65.05,476.15c0,9.18-6.65,16.05-15.69,16.05s-15.7-6.87-15.7-16.05,6.65-16,15.7-16S65.05,467,65.05,476.15Zm-5.41,0c0-6-4-11-10.28-11s-10.29,5-10.29,11,4,11,10.29,11S59.64,482.14,59.64,476.15Z"/><path class="cls-1" d="M78,460.63,93.48,482V460.63H98.8v31H94L78.5,470.34v21.33H73.18v-31Z"/><path class="cls-1" d="M113.49,460.63,129,482V460.63h5.32v31h-4.79L114,470.34v21.33H108.7v-31Z"/><path class="cls-1" d="M149.55,473.22H162v5.06H149.55v8.33H163.3v5.06H144.23v-31H163v5.06H149.55Z"/><path class="cls-1" d="M194.12,483.42l3.55,3.51a15.66,15.66,0,0,1-11.93,5.27c-9,0-15.74-6.87-15.74-16.05s6.78-16,15.74-16A15.53,15.53,0,0,1,197.22,465l-3.59,3.5a10.67,10.67,0,0,0-7.89-3.41c-6.12,0-10.33,5.1-10.33,11.08s4.21,11.08,10.33,11.08A11.06,11.06,0,0,0,194.12,483.42Z"/><path class="cls-1" d="M211,465.69h-8.56v-5.06h22.44v5.06H216.3v26H211Z"/><path class="cls-1" d="M232.71,460.63H238v31h-5.33Z"/><path class="cls-1" d="M253.34,460.63,268.85,482V460.63h5.32v31h-4.79l-15.51-21.33v21.33h-5.32v-31Z"/><path class="cls-1" d="M304.87,485.73v-6.56h-7.05v-5H310.1v14.1s-4,3.9-11.48,3.9a15.94,15.94,0,0,1-16.32-16.05,15.76,15.76,0,0,1,16.1-16,15.36,15.36,0,0,1,11.48,4.66l-3.64,3.54a10.26,10.26,0,0,0-7.84-3.23c-6.26,0-10.69,5.1-10.69,11.08a10.93,10.93,0,0,0,10.91,11.08C303.05,487.23,304.87,485.73,304.87,485.73Z"/><path class="cls-1" d="M345.23,478.72c-4.56-1.59-9.71-4.08-9.71-9.84,0-4.39,3.9-8.78,10.16-8.78a13.32,13.32,0,0,1,10.1,4.92l-3.67,3.64s-2.58-3.51-6.43-3.51c-2.66,0-4.75,1.64-4.75,3.73,0,2.7,2.44,3.55,6.7,5.14,4.74,1.78,8.69,3.9,8.69,9.53s-5,8.65-10.82,8.65a13.56,13.56,0,0,1-11.35-6.34l4-3.37s2.66,4.66,7.36,4.66c2.66,0,5.41-1.07,5.41-3.6S348.91,480,345.23,478.72Z"/><path class="cls-1" d="M371,465.69h-8.55v-5.06h22.43v5.06h-8.56v26H371Z"/><path class="cls-1" d="M399.52,460.63h5.41l12.06,31h-5.36l-2.84-7.36H395.66l-2.83,7.36h-5.37Zm-1.95,18.8h9.31l-4.65-12.1Z"/><path class="cls-1" d="M428.66,460.63,444.18,482V460.63h5.32v31h-4.79l-15.52-21.33v21.33h-5.32v-31Z"/><path class="cls-1" d="M484.76,476.15c0,9-6.29,15.52-15.34,15.52h-10v-31h10C478.47,460.63,484.76,467.19,484.76,476.15Zm-5.41,0c0-5.67-3.81-10.46-9.84-10.46h-4.79v20.92h4.79C475.54,486.61,479.35,481.78,479.35,476.15Z"/><path class="cls-1" d="M501.22,460.63h5.41l12.06,31h-5.36l-2.84-7.36H497.36l-2.83,7.36h-5.37Zm-2,18.8h9.31l-4.65-12.1Z"/><path class="cls-1" d="M525.57,460.63h10.2c6.16,0,10.29,4,10.29,9.67,0,4.65-2.48,8.2-6.92,9.31l7.76,12.06h-6.21L533.33,480h-2.44v11.71h-5.32Zm15.08,9.67c0-3.06-2.13-4.61-5.54-4.61h-4.22v9.22h4.22C538.52,474.91,540.65,473.36,540.65,470.3Z"/><path class="cls-1" d="M580.12,476.15c0,9-6.3,15.52-15.34,15.52h-10v-31h10C573.82,460.63,580.12,467.19,580.12,476.15Zm-5.41,0c0-5.67-3.81-10.46-9.84-10.46h-4.79v20.92h4.79C570.9,486.61,574.71,481.78,574.71,476.15Z"/><path class="cls-1" d="M598.09,478.72c-4.57-1.59-9.71-4.08-9.71-9.84,0-4.39,3.9-8.78,10.15-8.78A13.35,13.35,0,0,1,608.64,465L605,468.66s-2.57-3.51-6.43-3.51c-2.66,0-4.74,1.64-4.74,3.73,0,2.7,2.44,3.55,6.69,5.14,4.75,1.78,8.69,3.9,8.69,9.53s-5,8.65-10.82,8.65A13.56,13.56,0,0,1,587,485.86l4-3.37s2.66,4.66,7.36,4.66c2.66,0,5.41-1.07,5.41-3.6S601.77,480,598.09,478.72Z"/><path class="cls-1" d="M409.33,130.81a36.49,36.49,0,0,0-7,.7L357.57,59.85a35.85,35.85,0,1,0-61.66-17L224.24,87.59a35.85,35.85,0,1,0-17,61.66L252,220.92a35.82,35.82,0,1,0,62.37,24,36.49,36.49,0,0,0-.7-7l71.66-44.77a35.82,35.82,0,1,0,24-62.37ZM331,17.92a17.92,17.92,0,1,1-17.91,17.91A17.91,17.91,0,0,1,331,17.92ZM286.7,158.47V122.3h36.16v36.17ZM303.78,59a35.87,35.87,0,0,0,19.08,11.66v33.7H234.68c-.17-.62-.36-1.23-.57-1.84Zm-121.47,55.1A17.92,17.92,0,1,1,200.23,132,17.92,17.92,0,0,1,182.31,114.13Zm41.11,27.26a36,36,0,0,0,11.67-19.09h33.69v88.18c-.62.17-1.23.36-1.84.57Zm55.1,121.46a17.92,17.92,0,1,1,17.92-17.91A17.91,17.91,0,0,1,278.52,262.85Zm27.26-41.11a35.87,35.87,0,0,0-19.08-11.66v-33.7h88.17c.17.62.36,1.23.57,1.84Zm68.69-63.27h-33.7V70.29c.62-.17,1.23-.36,1.84-.57l43.52,69.66A35.9,35.9,0,0,0,374.47,158.47Zm34.86,26.09a17.92,17.92,0,1,1,17.91-17.92A17.92,17.92,0,0,1,409.33,184.56Z"/></svg>